{
	"asset":{
		"generator":"Khronos glTF Blender I/O v4.1.62",
		"version":"2.0"
	},
	"scene":0,
	"scenes":[
		{
			"name":"Scene",
			"nodes":[
				0
			]
		}
	],
	"nodes":[
		{
			"mesh":0,
			"name":"Studio Grip.001",
			"rotation":[
				-0.6346424221992493,
				0.5616120100021362,
				0.2436569631099701,
				0.4716483950614929
			],
			"scale":[
				2.999999523162842,
				0.33329999446868896,
				1
			],
			"translation":[
				-0.016344260424375534,
				3.1814775466918945,
				0
			]
		}
	],
	"materials":[
		{
			"doubleSided":true,
			"name":"Material.004",
			"pbrMetallicRoughness":{
				"baseColorFactor":[
					0.800000011920929,
					0.800000011920929,
					0.800000011920929,
					1
				],
				"roughnessFactor":0.29291340708732605
			}
		}
	],
	"meshes":[
		{
			"name":"Cube.005",
			"primitives":[
				{
					"attributes":{
						"POSITION":0,
						"NORMAL":1,
						"TEXCOORD_0":2
					},
					"indices":3,
					"material":0
				}
			]
		}
	],
	"accessors":[
		{
			"bufferView":0,
			"componentType":5126,
			"count":12606,
			"max":[
				1,
				0.9999997615814209,
				1
			],
			"min":[
				-1,
				-0.9999997615814209,
				-1
			],
			"type":"VEC3"
		},
		{
			"bufferView":1,
			"componentType":5126,
			"count":12606,
			"type":"VEC3"
		},
		{
			"bufferView":2,
			"componentType":5126,
			"count":12606,
			"type":"VEC2"
		},
		{
			"bufferView":3,
			"componentType":5123,
			"count":30486,
			"type":"SCALAR"
		}
	],
	"bufferViews":[
		{
			"buffer":0,
			"byteLength":151272,
			"byteOffset":0,
			"target":34962
		},
		{
			"buffer":0,
			"byteLength":151272,
			"byteOffset":151272,
			"target":34962
		},
		{
			"buffer":0,
			"byteLength":100848,
			"byteOffset":302544,
			"target":34962
		},
		{
			"buffer":0,
			"byteLength":60972,
			"byteOffset":403392,
			"target":34963
		}
	],
	"buffers":[
		{
			"byteLength":464364,
			"uri":"grip.bin"
		}
	]
}
