{
	"asset":{
		"generator":"Khronos glTF Blender I/O v4.1.62",
		"version":"2.0"
	},
	"scene":0,
	"scenes":[
		{
			"name":"Scene",
			"nodes":[
				0
			]
		}
	],
	"nodes":[
		{
			"mesh":0,
			"name":"Cube.001",
			"scale":[
				23,
				12.300000190734863,
				63.20000076293945
			]
		}
	],
	"materials":[
		{
			"doubleSided":true,
			"name":"Material.001",
			"pbrMetallicRoughness":{
				"baseColorFactor":[
					0.7862594127655029,
					0.8013342618942261,
					0.6948311924934387,
					1
				],
				"roughnessFactor":0
			}
		}
	],
	"meshes":[
		{
			"name":"Cube.002",
			"primitives":[
				{
					"attributes":{
						"POSITION":0,
						"NORMAL":1,
						"TEXCOORD_0":2
					},
					"indices":3,
					"material":0
				},
				{
					"attributes":{
						"POSITION":4,
						"NORMAL":5,
						"TEXCOORD_0":6
					},
					"indices":7,
					"material":0
				}
			]
		}
	],
	"accessors":[
		{
			"bufferView":0,
			"componentType":5126,
			"count":20945,
			"max":[
				1.000002145767212,
				1,
				1
			],
			"min":[
				-1.000002145767212,
				-1,
				-1.0024577379226685
			],
			"type":"VEC3"
		},
		{
			"bufferView":1,
			"componentType":5126,
			"count":20945,
			"type":"VEC3"
		},
		{
			"bufferView":2,
			"componentType":5126,
			"count":20945,
			"type":"VEC2"
		},
		{
			"bufferView":3,
			"componentType":5123,
			"count":44367,
			"type":"SCALAR"
		},
		{
			"bufferView":4,
			"componentType":5126,
			"count":5725,
			"max":[
				1.000002145767212,
				1,
				0.008943840861320496
			],
			"min":[
				-1.000002145767212,
				-1,
				-1.0024577379226685
			],
			"type":"VEC3"
		},
		{
			"bufferView":5,
			"componentType":5126,
			"count":5725,
			"type":"VEC3"
		},
		{
			"bufferView":6,
			"componentType":5126,
			"count":5725,
			"type":"VEC2"
		},
		{
			"bufferView":7,
			"componentType":5123,
			"count":9099,
			"type":"SCALAR"
		}
	],
	"bufferViews":[
		{
			"buffer":0,
			"byteLength":251340,
			"byteOffset":0,
			"target":34962
		},
		{
			"buffer":0,
			"byteLength":251340,
			"byteOffset":251340,
			"target":34962
		},
		{
			"buffer":0,
			"byteLength":167560,
			"byteOffset":502680,
			"target":34962
		},
		{
			"buffer":0,
			"byteLength":88734,
			"byteOffset":670240,
			"target":34963
		},
		{
			"buffer":0,
			"byteLength":68700,
			"byteOffset":758976,
			"target":34962
		},
		{
			"buffer":0,
			"byteLength":68700,
			"byteOffset":827676,
			"target":34962
		},
		{
			"buffer":0,
			"byteLength":45800,
			"byteOffset":896376,
			"target":34962
		},
		{
			"buffer":0,
			"byteLength":18198,
			"byteOffset":942176,
			"target":34963
		}
	],
	"buffers":[
		{
			"byteLength":960376,
			"uri":"studio-grip-new-prod.bin"
		}
	]
}
